# xmcd CD database file
#
# Track frame offsets:
#	150
#	11929
#	34848
#	56299
#	73207
#	79242
#	94527
#
# Disc length: 1507 seconds
#
# Revision: 0
# Processed by: cddbd v1.5.2PL0 Copyright (c) Steve Scherf et al.
# Submitted via: CDex 1.70beta1
#
DISCID=5605e107
DTITLE=The Leviathan Brothers - The Man Who Lost His Shadow
DYEAR=2007
DGENRE=Jazz
TTITLE0=Overture for Another Record
TTITLE1=Don't Talk (Put Your Head On My Shoulder)
TTITLE2=Same Time Next Year
TTITLE3=Playground Love
TTITLE4=Hoboken Promises
TTITLE5=Life On Mars?
TTITLE6=Gonna Get It Right
EXTD=YEAR: 2007
EXTT0=
EXTT1=
EXTT2=
EXTT3=
EXTT4=
EXTT5=
EXTT6=
PLAYORDER=
